#N canvas 0 60 1600 800 10;
#X obj 610 954 dac~;
#X obj 472 871 *~ 0.1;
#X obj 529 870 *~ 0.1;
#X obj 179 429 *~;
#X obj 76 136 mtof;
#X obj 76 159 osc~;
#X obj 208 307 min~;
#X obj 187 253 phasor~ 0.3;
#X obj 224 361 lop~ 40;
#X obj 530 430 *~;
#X obj 466 270 mtof;
#X obj 466 293 osc~;
#X obj 559 308 min~;
#X obj 538 254 phasor~ 0.3;
#X obj 575 362 lop~ 40;
#X obj 348 538 min~;
#X obj 379 619 delwrite~ tbt 200;
#X obj 739 625 delread~ tbt 200;
#X obj 713 488 delread~ tbt 120;
#X obj 768 695 +~;
#X obj 689 376 lop~ 40;
#X obj 755 746 *~ 0.8;
#X obj 807 333 / 300;
#X obj 437 537 vline~;
#X msg 452 488 \$1 300;
#X obj 852 489 random 80;
#X obj 844 421 tgl 15 0 empty empty empty 17 7 0 10 -262144 -1 -1 2
1;
#X obj 853 452 metro 800;
#X obj 260 166 phasor~;
#X obj 287 228 phasor~;
#X obj 290 313 *~;
#X obj 145 772 delwrite~ ddd 600;
#X obj 235 892 *~;
#X obj 426 569 vcf~ 10;
#X obj 211 847 delread~ ddd 600;
#X obj 1509 945 dac~;
#X obj 1371 862 *~ 0.1;
#X obj 1428 861 *~ 0.1;
#X obj 1078 420 *~;
#X obj 1014 283 osc~;
#X obj 1123 298 min~;
#X obj 1123 352 lop~ 40;
#X obj 1429 421 *~;
#X obj 1365 261 mtof;
#X obj 1365 284 osc~;
#X obj 1458 299 min~;
#X obj 1474 353 lop~ 40;
#X obj 1247 529 min~;
#X obj 1667 686 +~;
#X obj 1588 367 lop~ 40;
#X obj 1654 737 *~ 0.8;
#X obj 1336 528 vline~;
#X msg 1351 479 \$1 300;
#X obj 898 308 random 80;
#X obj 900 349 * 10;
#X obj 1186 219 phasor~;
#X obj 1189 304 *~;
#X obj 1264 873 *~;
#X obj 1325 560 vcf~ 10;
#X obj 1437 245 osc~ 0.3;
#X obj 1612 479 delread~ tbtt 120;
#X obj 1159 157 osc~;
#X obj 1110 838 delread~ dddd 20;
#X obj 1044 763 delwrite~ dddd 50;
#X obj 1638 616 delread~ tbtt 60;
#X obj 1278 610 delwrite~ tbtt 100;
#X obj 1086 244 noise~ 10;
#X floatatom 128 -35 5 0 0 0 - - -;
#X floatatom 181 -34 5 0 0 0 - - -;
#X floatatom 86 -32 5 0 0 0 - - -;
#X obj 68 -106 unpackOSC;
#X obj 68 -72 route /pd/1 /pd/2 /pd/3 /pd/5 /pd/6 /pd/7 /pd/8 /pd/9
/pd/10 /pd/11 /pd/12 /pd/13 /pd/14 /pd/15, f 129;
#X obj 854 530 * 1;
#X obj 865 290 bng 15 250 50 0 empty empty empty 17 7 0 10 -262144
-1 -1;
#X obj 944 269 i;
#X obj 936 462 i;
#X msg 983 -79 \; pd dsp 1;
#X obj 982 -118 loadbang;
#X obj 1084 212 i;
#X obj 69 -131 tcpreceive 3002;
#X obj 1322 196 * 10;
#X connect 1 0 0 1;
#X connect 2 0 0 0;
#X connect 3 0 1 0;
#X connect 4 0 5 0;
#X connect 4 0 28 0;
#X connect 5 0 3 0;
#X connect 5 0 15 0;
#X connect 6 0 8 0;
#X connect 7 0 6 0;
#X connect 7 0 15 0;
#X connect 8 0 3 1;
#X connect 9 0 2 0;
#X connect 10 0 11 0;
#X connect 10 0 29 0;
#X connect 11 0 9 0;
#X connect 11 0 15 1;
#X connect 12 0 14 0;
#X connect 13 0 12 0;
#X connect 13 0 15 1;
#X connect 13 0 20 0;
#X connect 14 0 9 1;
#X connect 15 0 33 0;
#X connect 17 0 2 0;
#X connect 17 0 19 0;
#X connect 18 0 1 0;
#X connect 19 0 21 0;
#X connect 20 0 19 1;
#X connect 21 0 16 0;
#X connect 22 0 7 0;
#X connect 23 0 33 1;
#X connect 24 0 23 0;
#X connect 25 0 72 0;
#X connect 26 0 27 0;
#X connect 27 0 25 0;
#X connect 28 0 30 0;
#X connect 29 0 30 1;
#X connect 30 0 31 0;
#X connect 30 0 33 0;
#X connect 32 0 1 0;
#X connect 32 0 2 0;
#X connect 33 0 16 0;
#X connect 33 0 32 1;
#X connect 34 0 32 0;
#X connect 36 0 35 1;
#X connect 37 0 35 0;
#X connect 38 0 36 0;
#X connect 39 0 38 0;
#X connect 39 0 47 0;
#X connect 40 0 41 0;
#X connect 41 0 38 1;
#X connect 42 0 37 0;
#X connect 43 0 44 0;
#X connect 43 0 55 0;
#X connect 44 0 42 0;
#X connect 44 0 47 1;
#X connect 45 0 46 0;
#X connect 46 0 42 1;
#X connect 47 0 58 0;
#X connect 48 0 50 0;
#X connect 49 0 48 1;
#X connect 50 0 65 0;
#X connect 51 0 58 1;
#X connect 52 0 51 0;
#X connect 53 0 54 0;
#X connect 54 0 52 0;
#X connect 55 0 56 1;
#X connect 56 0 58 0;
#X connect 56 0 63 0;
#X connect 57 0 36 0;
#X connect 57 0 37 0;
#X connect 58 0 57 1;
#X connect 58 0 65 0;
#X connect 59 0 45 0;
#X connect 59 0 47 1;
#X connect 59 0 49 0;
#X connect 60 0 36 0;
#X connect 61 0 56 0;
#X connect 62 0 57 0;
#X connect 64 0 37 0;
#X connect 64 0 48 0;
#X connect 66 0 40 0;
#X connect 66 0 47 0;
#X connect 67 0 75 0;
#X connect 67 0 4 0;
#X connect 67 0 39 0;
#X connect 67 0 61 0;
#X connect 68 0 80 0;
#X connect 68 0 26 0;
#X connect 69 0 28 0;
#X connect 69 0 73 0;
#X connect 69 0 74 0;
#X connect 69 0 22 0;
#X connect 69 0 10 0;
#X connect 69 0 78 0;
#X connect 70 0 71 0;
#X connect 71 0 69 0;
#X connect 71 1 67 0;
#X connect 71 2 68 0;
#X connect 72 0 24 0;
#X connect 73 0 53 0;
#X connect 74 0 53 1;
#X connect 75 0 25 1;
#X connect 77 0 76 0;
#X connect 78 0 66 0;
#X connect 79 0 70 0;
#X connect 80 0 43 0;
